I don't care if your favorite episode guide website says The Haunted is on season 2. Eight months between the 10th and 11th episode does not constitute as being the same season. Completely idiotic that any episode guide would even consider saying it's the same season. Amazon dot com knows whats up and lists it as season 3.  I completely agree with it.
I don't want any whining or carping comments about this.
Just download and enjoy.
 

Format                           : AVI
Format/Info                      : Audio Video Interleave
File size                        : 350 MiB
Duration                         : 42mn 18s
Overall bit rate                 : 1 156 Kbps
Writing application              : VirtualDubMod 1.5.10.2 (build 2542/release)
Writing library                  : VirtualDubMod build 2542/release

Video
ID                               : 0
Format                           : MPEG-4 Visual
Format profile                   : Advanced Simple@L5
Format settings, BVOP            : Yes
Format settings, QPel            : No
Format settings, GMC             : No warppoints
Format settings, Matrix          : Default (H.263)
Muxing mode                      : Packed bitstream
Codec ID                         : XVID
Codec ID/Hint                    : XviD
Duration                         : 42mn 18s
Bit rate                         : 1 017 Kbps
Width                            : 624 pixels
Height                           : 352 pixels
Display aspect ratio             : 16:9
Frame rate                       : 29.970 fps
Color space                      : YUV
Chroma subsampling               : 4:2:0
Bit depth                        : 8 bits
Scan type                        : Progressive
Bits/(Pixel*Frame)               : 0.154
Stream size                      : 308 MiB (88%)
Writing library                  : XviD 58

Audio
ID                               : 1
Format                           : MPEG Audio
Format version                   : Version 1
Format profile                   : Layer 3
Mode                             : Joint stereo
Mode extension                   : MS Stereo
Codec ID                         : 55
Codec ID/Hint                    : MP3
Duration                         : 42mn 17s
Bit rate mode                    : Constant
Bit rate                         : 128 Kbps
Channel(s)                       : 2 channels
Sampling rate                    : 48.0 KHz
Stream size                      : 38.7 MiB (11%)
Alignment                        : Aligned on interleaves
Interleave, duration             : 33 ms (1.00 video frame)
Interleave, preload duration     : 504 ms
Writing library                  : LAME3.99a
Encoding settings                : -m j -V 4 -q 0 -lowpass 17 -b 128
